<?xml version="1.0" encoding="UTF-8"?>
<svg id="Layer_2" data-name="Layer 2" xmlns="http://www.w3.org/2000/svg" viewBox="0 0 2035.62 1124.74">
  <g id="Layer_1-2" data-name="Layer 1">
    <g>
      <path d="m1473.19,0c-544.23,0-548.74.05-555.36,6.68-5.86,5.86-6.68,11.13-6.68,43.18v36.5l-163.58,3.05c-27.9,5.2-49.72,38.2-49.79,60.84l-2.62,865.35c11.29,53.98,58.98,97.25,112.95,106.01,26.69,4.33,1091.34,4.08,1117.57-.27,51.57-8.57,96.79-54.26,107.08-108.19,2.76-14.47,2.97-153.8,2.82-509.51l-.22-490.93c-.29-7.04-7.14-12.71-13.49-12.71h-548.68Zm-511.87,50.08h1021.52l-.07,478.26c-.07,473.93-.13,478.39-6.87,493.28-9.13,20.18-21.4,32.64-41.47,42.12l-16.69,7.89-489.94.03c-269.47.03-489.94-.55-489.94-1.26,8.37-5.95,22.6-26.07,21.7-47.12l.88-486.6.88-486.6Zm-186.77,90.48c11.77,0,20.44,6.05,28.1,15.77l.82,423.46.81,423.46c1.7,9.35,5.61,12.97,18.24,13.37,22.07,0,72.43-.27,73.65,1.71,2.63,4.25-8.22,22.08-20.67,33.98-21.35,20.4-51.27,24.7-79.71,11.46-19.74-9.19-38.87-30.04-44.35-48.36-2.85-9.52-3.87-124.56-3.87-435.88V156.59c7.54-10.39,17.17-15.85,26.99-16.03Zm134.93,1.33l.86,407.31c.47,224.02.14,413.19-.73,415.49l-55.22.17-2.37-801.34-7.54-20.91,65-.72Z" fill="#6e2613"/>
      <path d="m199.49,168.82c-10.84-.15-20.92,5.54-26.38,14.9-5.46,9.36-5.46,20.94,0,30.3s15.54,15.05,26.38,14.9h443.56c10.84.15,20.92-5.54,26.38-14.9s5.46-20.94,0-30.3c-5.46-9.36-15.54-15.05-26.38-14.9H199.49Z" fill="#603226" fill-rule="evenodd"/>
      <path d="m30.48,284.84c-10.84-.15-20.92,5.54-26.38,14.9s-5.46,20.94,0,30.3,15.54,15.05,26.38,14.9h612.57c10.84.15,20.92-5.54,26.38-14.9s5.46-20.94,0-30.3-15.54-15.05-26.38-14.9H30.48Z" fill="#603226" fill-rule="evenodd"/>
      <path d="m199.49,400.87c-10.84-.15-20.92,5.54-26.38,14.9s-5.46,20.94,0,30.3,15.54,15.05,26.38,14.9h443.56c10.84.15,20.92-5.54,26.38-14.9s5.46-20.94,0-30.3-15.54-15.05-26.38-14.9H199.49Z" fill="#603226" fill-rule="evenodd"/>
      <path d="m309.19,516.89c-10.84-.15-20.92,5.54-26.38,14.9s-5.46,20.94,0,30.3,15.54,15.05,26.38,14.9h333.85c10.84.15,20.92-5.54,26.38-14.9s5.46-20.94,0-30.3-15.54-15.05-26.38-14.9h-333.85Z" fill="#603226" fill-rule="evenodd"/>
      <path d="m199.49,980.99c-10.84-.15-20.92,5.54-26.38,14.9s-5.46,20.94,0,30.3,15.54,15.05,26.38,14.9h443.56c10.84.15,20.92-5.54,26.38-14.9s5.46-20.94,0-30.3-15.54-15.05-26.38-14.9H199.49Z" fill="#603226" fill-rule="evenodd"/>
      <path d="m30.48,864.96c-10.84-.15-20.92,5.54-26.38,14.9-5.46,9.36-5.46,20.94,0,30.3,5.46,9.36,15.54,15.05,26.38,14.9h612.57c10.84.15,20.92-5.54,26.38-14.9,5.46-9.36,5.46-20.94,0-30.3-5.46-9.36-15.54-15.05-26.38-14.9H30.48Z" fill="#603226" fill-rule="evenodd"/>
      <path d="m199.49,748.94c-10.84-.15-20.92,5.54-26.38,14.9-5.46,9.36-5.46,20.94,0,30.3,5.46,9.36,15.54,15.05,26.38,14.9h443.56c10.84.15,20.92-5.54,26.38-14.9,5.46-9.36,5.46-20.94,0-30.3-5.46-9.36-15.54-15.05-26.38-14.9H199.49Z" fill="#603226" fill-rule="evenodd"/>
      <path d="m309.19,632.92c-10.84-.15-20.92,5.54-26.38,14.9s-5.46,20.94,0,30.3,15.54,15.05,26.38,14.9h333.85c10.84.15,20.92-5.54,26.38-14.9s5.46-20.94,0-30.3-15.54-15.05-26.38-14.9h-333.85Z" fill="#603226" fill-rule="evenodd"/>
      <path d="m1042.21,180.65c-10.84-.15-20.92,5.54-26.38,14.9-5.46,9.36-5.46,20.94,0,30.3,5.46,9.36,15.54,15.05,26.38,14.9h400.63c10.84.15,20.92-5.54,26.38-14.9,5.46-9.36,5.46-20.94,0-30.3-5.46-9.36-15.54-15.05-26.38-14.9h-400.63Z" fill="#bd3009" fill-rule="evenodd"/>
      <path d="m1042.21,327.09c-10.84-.15-20.92,5.54-26.38,14.9-5.46,9.36-5.46,20.94,0,30.3,5.46,9.36,15.54,15.05,26.38,14.9h400.63c10.84.15,20.92-5.54,26.38-14.9,5.46-9.36,5.46-20.94,0-30.3-5.46-9.36-15.54-15.05-26.38-14.9h-400.63Z" fill="#bd3009" fill-rule="evenodd"/>
      <path d="m1042.21,473.53c-10.84-.15-20.92,5.54-26.38,14.9-5.46,9.36-5.46,20.94,0,30.3,5.46,9.36,15.54,15.05,26.38,14.9h400.63c10.84.15,20.92-5.54,26.38-14.9,5.46-9.36,5.46-20.94,0-30.3-5.46-9.36-15.54-15.05-26.38-14.9h-400.63Z" fill="#bd3009" fill-rule="evenodd"/>
      <path d="m1042.21,619.97c-10.84-.15-20.92,5.54-26.38,14.9-5.46,9.36-5.46,20.94,0,30.3,5.46,9.36,15.54,15.05,26.38,14.9h400.63c10.84.15,20.92-5.54,26.38-14.9,5.46-9.36,5.46-20.94,0-30.3-5.46-9.36-15.54-15.05-26.38-14.9h-400.63Z" fill="#bd3009" fill-rule="evenodd"/>
      <path d="m1042.21,766.41c-10.84-.15-20.92,5.54-26.38,14.9s-5.46,20.94,0,30.3,15.54,15.05,26.38,14.9h400.63c10.84.15,20.92-5.54,26.38-14.9s5.46-20.94,0-30.3-15.54-15.05-26.38-14.9h-400.63Z" fill="#bd3009" fill-rule="evenodd"/>
      <path d="m1042.21,912.85c-10.84-.15-20.92,5.54-26.38,14.9-5.46,9.36-5.46,20.94,0,30.3,5.46,9.36,15.54,15.05,26.38,14.9h829.88c10.84.15,20.92-5.54,26.38-14.9,5.46-9.36,5.46-20.94,0-30.3-5.46-9.36-15.54-15.05-26.38-14.9h-829.88Z" fill="#bd3009" fill-rule="evenodd"/>
      <rect x="1537.74" y="189.65" width="348.71" height="627.68" fill="#d35d42"/>
    </g>
  </g>
</svg>